<svg width="33" height="46" viewBox="0 0 33 46" fill="none" xmlns="http://www.w3.org/2000/svg">
<g id="html5 1" clip-path="url(#clip0_199_17)">
<g id="Group">
<path id="Vector" d="M3.59688 41.7999L0.666534 9.4054H32.8665L29.933 41.7948L16.7468 45.3978L3.59688 41.7999Z" fill="#E44D26"/>
<path id="Vector_2" d="M16.7665 42.6437L27.4215 39.7322L29.9286 12.0541H16.7665V42.6437Z" fill="#F16529"/>
<path id="Vector_3" d="M16.7664 24.0687H11.4323L11.0638 20.0003H16.7664V16.0272H6.65823L6.75483 17.0931L7.74557 28.0417H16.7664V24.0687ZM16.7664 34.387L16.7487 34.3918L12.2593 33.1969L11.9723 30.0284H7.92574L8.49056 36.2666L16.748 38.5259L16.7664 38.5208V34.387Z" fill="#EBEBEB"/>
<path id="Vector_4" d="M3.66226 0.601929H5.71077V2.5967H7.58466V0.601929H9.63324V6.64265H7.58466V4.61989H5.71077V6.64265H3.66241L3.66226 0.601929ZM12.3273 2.60521H10.5239V0.601929H16.1804V2.60521H14.3762V6.64265H12.3274V2.60521H12.3273ZM17.078 0.601929H19.2141L20.5281 2.72451L21.8408 0.601929H23.9778V6.64265H21.9373V3.64847L20.5279 5.7963H20.4927L19.0823 3.64847V6.64265H17.0779V0.601929H17.078ZM24.9971 0.601929H27.0462V4.646H29.9272V6.64265H24.9971V0.601929Z" fill="black"/>
<path id="Vector_5" d="M16.7524 24.0687V28.0417H21.7164L21.2484 33.1945L16.7524 34.3904V38.5238L25.0164 36.2666L25.0769 35.5952L26.0243 25.1356L26.1226 24.0687H25.0365H16.7524ZM16.7524 16.0272V20.0003H26.4895L26.5702 19.1072L26.7539 17.0931L26.8504 16.0272H16.7524Z" fill="white"/>
</g>
</g>
<defs>
<clipPath id="clip0_199_17">
<rect width="32.2" height="44.8" fill="white" transform="translate(0.666534 0.599976)"/>
</clipPath>
</defs>
</svg>
